<svg xmlns="http://www.w3.org/2000/svg" viewBox="0 0 436.5 34.38"><defs><style>.cls-1{fill:#f89522;}</style></defs><title>Asset 60</title><g id="Layer_2" data-name="Layer 2"><g id="Layer_1-2" data-name="Layer 1"><path class="cls-1" d="M46.17,17.52A16.5,16.5,0,1,0,15.54,26H7.76V0H.1L0,27l7,7H32.39v-.28A16.5,16.5,0,0,0,46.17,17.52ZM29.68,26a8.5,8.5,0,1,1,8.49-8.49A8.5,8.5,0,0,1,29.68,26Z"/><path class="cls-1" d="M42.12.83,53.3,34.05h7.45l8-25V26.6l6.83,7.45H91V26H76.38V21.22h8.28V13.45H76.17V8.38H94.7v18L102.25,34h9.83V26H101.84V8h5.28s4.24,6,8,8.07v18h7.66V16.14a29.6,29.6,0,0,0,6.73-7h3.83V.52h-4.24s-4.66,8.07-7.46,9.83h-4.55s-2.82.87-7.52-7.84a3,3,0,0,0-1.31-1.27L106.7.52H64.06L56.92,22.35,49.16.52Z"/><path class="cls-1" d="M193.55,12.12V30.28l-9.78-9.78a10.53,10.53,0,0,0,4.54-8.68C188.31,6,181.23.6,175.39.6H150.57l-8,8V34.05H150V20.79h10V13.16h-9.48V8.37H162V19.71h0V34.37h7.47v-12h8.3l.36,0,11.84,11.83h10.92V12.12ZM169.09,8.37h7.8a3.46,3.46,0,0,1,0,6.91h-7.8Z"/><path class="cls-1" d="M237.52.21H200.86l-7.09,8.55H204V26.9L211.12,34h15V26.18H211.54V20.77h8.59V13.53h-8.88V8.76h19V34.37h7.27A12.44,12.44,0,0,0,250,21.93V12.65A12.44,12.44,0,0,0,237.52.21Zm4,22.27a4.42,4.42,0,0,1-4.43,4.42V8.76a4.42,4.42,0,0,1,4.43,4.42Z"/><path class="cls-1" d="M315.69.76V34.38H308.3V21.12h-8.52l-.08,5.66-7.33,7.55-14.11.05c-.94,0-1.63,0-2.35,0A16.81,16.81,0,1,1,292.06,13h-9a9,9,0,1,0-7.61,13.88h.46l.47,0h16V.76h7.33V13.41h8.6V.76Z"/><path class="cls-1" d="M436.5.76V34.38h-7.17L421.25,21.3V34.38H414V8.21H395.2V13.5h8.91v7.8h-8.23v4.58h13.74v8.5H395.43L388.33,27V8.21h-5.06l-4.79,7.63,8.95,18.54h-7.1l-7.25-16.05H370v8.53l-7.22,7.52v-.05l-14.1.05c-1,0-1.64,0-2.36,0A16.81,16.81,0,1,1,362.45,13h-9a9,9,0,1,0-7.61,13.88h.46l.47,0h16V.44H370v10h4.53L381.08.76H418l11.1,17.57V.76Z"/><path class="cls-1" d="M276.38,26.78l-.47,0v0Z"/><rect class="cls-1" x="319.4" y="0.43" width="7.55" height="7.55"/><rect class="cls-1" x="319.4" y="10.25" width="7.55" height="24.13"/></g></g></svg>